<svg width="806" height="212" viewBox="0 0 806 212" fill="none" xmlns="http://www.w3.org/2000/svg">
<path d="M289.464 146V134.964L325.176 80.528H292.812V65.152H347.62V76.188L311.908 130.624H347.992V146H289.464ZM384.326 105.08L382.342 112.52H399.578L397.718 105.08C396.643 101.029 395.527 96.7307 394.37 92.184C393.295 87.6373 392.221 83.256 391.146 79.04H390.65C389.658 83.3387 388.625 87.7613 387.55 92.308C386.558 96.772 385.483 101.029 384.326 105.08ZM355.062 146L380.358 65.152H402.306L427.602 146H408.258L403.298 126.78H378.622L373.662 146H355.062ZM440.156 146V65.152H458.384V146H440.156ZM481.173 146V65.152H503.989C512.256 65.152 519.406 66.5573 525.441 69.368C531.476 72.1787 536.146 76.56 539.453 82.512C542.842 88.3813 544.537 95.9453 544.537 105.204C544.537 114.463 542.884 122.109 539.577 128.144C536.27 134.179 531.641 138.684 525.689 141.66C519.82 144.553 512.917 146 504.981 146H481.173ZM499.401 131.244H502.873C507.502 131.244 511.512 130.417 514.901 128.764C518.373 127.111 521.06 124.383 522.961 120.58C524.862 116.777 525.813 111.652 525.813 105.204C525.813 98.756 524.862 93.7133 522.961 90.076C521.06 86.356 518.373 83.752 514.901 82.264C511.512 80.6933 507.502 79.908 502.873 79.908H499.401V131.244ZM563.604 146V65.152H581.832V146H563.604ZM604.621 146V65.152H624.585L637.605 101.112C638.431 103.427 639.217 105.865 639.961 108.428C640.705 110.991 641.49 113.512 642.317 115.992H642.813C643.639 113.512 644.383 110.991 645.045 108.428C645.789 105.865 646.574 103.427 647.401 101.112L660.173 65.152H680.013V146H663.397V116.364C663.397 113.719 663.521 110.784 663.769 107.56C664.099 104.253 664.43 100.947 664.761 97.64C665.174 94.3333 665.505 91.3987 665.753 88.836H665.257L658.685 108.056L647.153 138.932H637.109L625.577 108.056L619.129 88.836H618.633C618.963 91.3987 619.294 94.3333 619.625 97.64C619.955 100.947 620.245 104.253 620.493 107.56C620.823 110.784 620.989 113.719 620.989 116.364V146H604.621ZM721.766 105.08L719.782 112.52H737.018L735.158 105.08C734.083 101.029 732.967 96.7307 731.81 92.184C730.735 87.6373 729.66 83.256 728.586 79.04H728.09C727.098 83.3387 726.064 87.7613 724.99 92.308C723.998 96.772 722.923 101.029 721.766 105.08ZM692.502 146L717.798 65.152H739.746L765.042 146H745.698L740.738 126.78H716.062L711.102 146H692.502ZM777.596 146V65.152H795.824V146H777.596Z" fill="#FFAB00"/>
<path fill-rule="evenodd" clip-rule="evenodd" d="M91.6993 115.397C103.72 112.031 108.19 100.572 108.19 91.4924C108.19 75.7453 97.7735 65.1705 82.2677 65.1705H50.5996V81.1174H79.8878C86.3791 81.1174 90.7433 85.3419 90.7433 91.4924C90.7433 97.6429 86.3791 101.773 79.8878 101.773H58.174V117.711H74.3056L89.1949 146.29H108.848L91.6993 115.397Z" fill="#FFAB00"/>
<path fill-rule="evenodd" clip-rule="evenodd" d="M115.804 65.1672V81.0893H136.361V146.259H153.475V81.0893H174.021V65.1672H115.804Z" fill="#FFAB00"/>
<path fill-rule="evenodd" clip-rule="evenodd" d="M17.1062 130.335V65.1705H0V146.26H50.5896V130.335H17.1062Z" fill="#FFAB00"/>
<path fill-rule="evenodd" clip-rule="evenodd" d="M225.372 211.473H242.486V0H225.372V211.473Z" fill="#FFAB00"/>
</svg>
